<svg id="Layer_1" data-name="Layer 1" xmlns="http://www.w3.org/2000/svg" viewBox="0 0 135.38 155.36">
  <defs>
    <style>
      .cls-1 {
        fill: #fff;
      }

      .cls-14, .cls-2 {
        fill: none;
      }

      .cls-3 {
        fill: #d7d7d5;
      }

      .cls-4 {
        fill: #e2e2e1;
      }

      .cls-5 {
        fill: #b7b7b7;
      }

      .cls-6 {
        fill: #7f8080;
      }

      .cls-7 {
        fill: #dcbda8;
      }

      .cls-8 {
        fill: #a2a896;
      }

      .cls-9 {
        fill: #c3912b;
      }

      .cls-10 {
        fill: #418841;
      }

      .cls-11 {
        fill: #ad7e56;
      }

      .cls-12 {
        fill: #5a5a5a;
      }

      .cls-13, .cls-15, .cls-16, .cls-17, .cls-18, .cls-19, .cls-20, .cls-21, .cls-22, .cls-23 {
        fill: #ffe158;
      }

      .cls-13, .cls-14, .cls-15, .cls-16, .cls-17, .cls-18, .cls-19, .cls-20, .cls-21, .cls-22, .cls-23 {
        stroke: #eaca41;
        stroke-miterlimit: 10;
      }

      .cls-15 {
        stroke-width: 0.82px;
      }

      .cls-16 {
        stroke-width: 0.83px;
      }

      .cls-17 {
        stroke-width: 1.02px;
      }

      .cls-18 {
        stroke-width: 0.84px;
      }

      .cls-19 {
        stroke-width: 0.71px;
      }

      .cls-20 {
        stroke-width: 0.85px;
      }

      .cls-21 {
        stroke-width: 0.8px;
      }

      .cls-22 {
        stroke-width: 0.86px;
      }

      .cls-23 {
        stroke-width: 0.99px;
      }

      .cls-24 {
        opacity: 0.22;
      }

      .cls-25 {
        fill: #ffe045;
      }

      .cls-26 {
        opacity: 0.63;
      }

      .cls-27 {
        fill: #f7f6f0;
      }

      .cls-28 {
        fill: #e2c341;
      }

      .cls-29 {
        opacity: 0.46;
      }
    </style>
  </defs>
  <title>lonac</title>
  <path class="cls-1" d="M316,330.74" transform="translate(-300.33 -200.55)"/>
  <path class="cls-1" d="M318,329.79" transform="translate(-300.33 -200.55)"/>
  <path class="cls-2" d="M411,257.92c.1.59.21,1.18.3,1.79" transform="translate(-300.33 -200.55)"/>
  <path class="cls-2" d="M384.4,256l-.21.35c-1.6,2.59-3.28,5.29-5,8,2.17-.1,4.27-.22,6.28-.35,1.38-2.35,2.77-4.69,4.17-7l.19-.32" transform="translate(-300.33 -200.55)"/>
  <path class="cls-3" d="M303,266.31v0c0,.09,0,.15,0,.21,6.48,1.1,12.46,1.9,17.83,2.48l2.25.23c1.1.12,2.18.22,3.23.31l2.31.2.74.06h0c1.82.14,3.54.26,5.15.36,7.84.46,13.9.51,20.12.55,9.4.07,18.25.13,29.52-.69a273.9,273.9,0,0,0,27.56-3.47c0-.14,0-.24,0-.24,0-.37,3.06-4.67,3.17-6.05.29-3.65-11.94-5.93-11.94-5.93-3.55-.67-7.08-1.25-10.56-1.75l-2.5,4.09-.19.32c-1.4,2.31-2.79,4.65-4.17,7-2,.13-4.11.25-6.28.35,1.71-2.73,3.39-5.43,5-8l.21-.35c.88-1.4,1.73-2.78,2.55-4.11-5.36-.65-10.59-1.13-15.66-1.45-31.74-2-57.11,2-65.43,5.78-2.6,1.17-5.85,3.37-5.51,5.09C300.58,262.46,303,265.93,303,266.31Z" transform="translate(-300.33 -200.55)"/>
  <path class="cls-4" d="M320.74,293.16c0,.32,0,.62,0,.9s0,.6,0,.86,0,.28,0,.42v.32c.39,19.06,5.81,30.95,5.81,30.95.33.72.82,1.73,1.44,2.84a20.75,20.75,0,0,0,7.06,7.86l.11.07c.42.27.82.51,1.21.71l2.56.73q1.65.45,3.18.78c1.49.32,2.87.57,4.15.75h0l1.11.16a13.26,13.26,0,0,1-3.66-1.73c-1.55-1-4.31-3-7.17-8.16-.62-1.13-1.11-2.18-1.44-2.91,0,0-5.42-12.23-5.81-31.82v-.17c0-1,0-2.36,0-4,0-3.38,0-7.8,0-11.72,0-2.06,0-4,0-5.56,0-2.11,0-3.57,0-3.89v-.76l-.74-.06-2.31-.2c-1-.09-2.13-.19-3.23-.31L320.8,269v0a5,5,0,0,1,0,.57c0,.33,0,1.28,0,1.41,0,.3,0,1.72,0,3.74C320.74,279.72,320.71,288.3,320.74,293.16Z" transform="translate(-300.33 -200.55)"/>
  <path class="cls-5" d="M329.33,296c.39,19.65,5.81,31.91,5.81,31.91.33.74.82,1.79,1.44,2.93,2.86,5.2,5.62,7.13,7.17,8.17a13.05,13.05,0,0,0,3.66,1.74c2.09.27,3.82.39,5.08.48a65.79,65.79,0,0,0,9.65,0c4.64-.35,20-1.51,32.44-11.27.9-.71,1.79-1.46,2.65-2.25,0,0,13.58-12.56,14.53-32.65.2-4.05.09-16.43,0-22.55,0-1.87,0-3.16,0-3.44s0-1.1,0-1.46c0,0,0-.34,0-.66h0s0-.15,0-.3v-.06a266.26,266.26,0,0,1-27.56,3.49c-11.27.84-20.12.77-29.52.71-6.22,0-12.28-.09-20.12-.56-1.61-.1-3.33-.22-5.15-.37h0v.74c0,.32,0,1.78,0,3.89C329.29,280.6,329.26,292.11,329.33,296Z" transform="translate(-300.33 -200.55)"/>
  <path class="cls-5" d="M302.88,294.83c1,19.93,14.53,32.36,14.53,32.36a46.63,46.63,0,0,0,3.61,3,49.59,49.59,0,0,0,15.38,7.56c-.39-.2-.79-.43-1.21-.7a20.78,20.78,0,0,1-7.17-7.89c-.62-1.1-1.11-2.11-1.44-2.82,0,0-5.42-11.82-5.81-30.78-.08-3.74,0-14.84,0-20.76,0-2,0-3.44,0-3.74,0-.13,0-1.08,0-1.41a5.41,5.41,0,0,0,0-.58c-5.37-.57-11.35-1.37-17.83-2.47,0,.11,0,.19,0,.38h0a5,5,0,0,1,0,.62c0,.34,0,1.35,0,1.48,0,.32,0,1.81,0,3.94C302.78,279.22,302.69,290.89,302.88,294.83Z" transform="translate(-300.33 -200.55)"/>
  <path class="cls-2" d="M368.24,272.18" transform="translate(-300.33 -200.55)"/>
  <path class="cls-2" d="M411.69,266.57l.19,0" transform="translate(-300.33 -200.55)"/>
  <path class="cls-2" d="M311.93,297.56" transform="translate(-300.33 -200.55)"/>
  <path class="cls-2" d="M411.76,258.37c.51.33.77.67.77,1a1.07,1.07,0,0,1-.47.79,11.5,11.5,0,0,1-4.07,1.58c-4.52,1.13-12.16,2.08-21.73,2.71q-3,.19-6.29.36c-6.7.32-14.1.5-21.88.5-22.32,0-41.49-1.47-49.89-3.57h0a11.63,11.63,0,0,1-4.06-1.58,1.06,1.06,0,0,1-.48-.79c0-.34.27-.68.78-1" transform="translate(-300.33 -200.55)"/>
  <path class="cls-2" d="M408,261.43c-3.81-1.71-9.84-3.18-17.38-4.29l-1-.13" transform="translate(-300.33 -200.55)"/>
  <path class="cls-2" d="M384.19,256.34a248.64,248.64,0,0,0-26.1-1.3c-22.32,0-41.49,2.63-49.89,6.39h0" transform="translate(-300.33 -200.55)"/>
  <g>
    <path class="cls-6" d="M407.37,261.9c-3.83-1.77-9.76-3.3-17.15-4.45l-1-.15-5.46-.72a235.55,235.55,0,0,0-26.15-1.39c-22.36,0-41.56,2.81-50,6.84h0l-.17-.15" transform="translate(-300.33 -200.55)"/>
    <path class="cls-6" d="M407.81,261.56c-4.56,1.18-12.11,2.17-21.54,2.84-2,.14-4.12.27-6.29.38-6.71.35-14.13.54-21.92.54-22.35,0-41.56-1.57-50-3.82h0l-.15,0" transform="translate(-300.33 -200.55)"/>
    <line class="cls-6" x1="7.17" y1="61.33" x2="7.19" y2="61.79"/>
  </g>
  <path class="cls-7" d="M415,210.07h0a1.71,1.71,0,0,0-.5-.19c-4-.88-10.59,14.48-25.6,38.81-.64,1-1.29,2.1-2,3.19L384.4,256l-.21.35c-1.55,2.51-3.17,5.12-4.83,7.76" transform="translate(-300.33 -200.55)"/>
  <g>
    <path class="cls-8" d="M398.46,263.35a85.76,85.76,0,0,0-14-2.23l-.79-.07-4.46-.36c-6.33-.45-13.6-.7-21.33-.7-18.23,0-33.9,1.41-40.76,3.42h0l-.14-.07" transform="translate(-300.33 -200.55)"/>
    <path class="cls-9" d="M398.82,263.18a173.72,173.72,0,0,1-17.57,1.42c-1.64.07-3.36.14-5.13.19-5.47.18-11.52.27-17.88.27-18.23,0-33.9-.79-40.76-1.91h0l-.12,0" transform="translate(-300.33 -200.55)"/>
    <line class="cls-10" x1="98.14" y1="62.8" x2="98.16" y2="63.07"/>
    <line class="cls-10" x1="16.67" y1="62.79" x2="16.68" y2="63.02"/>
  </g>
  <path class="cls-11" d="M379.2,264.36c2.17-.1,4.27-.22,6.28-.35,1.38-2.35,2.77-4.69,4.17-7l.19-.32,2.5-4.09c8.05-13,15.92-24.52,20.74-29.67.8-.85,3.33-3.46,3.89-6.62.48-2.73-.57-5.45-2-6.24a8.59,8.59,0,0,1,0,3c-.59,3.37-3.24,6.16-4.08,7.07-5.07,5.51-13.34,17.8-21.79,31.71l-2.63,4.37c-.06.11-.13.22-.2.33-1.47,2.47-2.93,5-4.38,7.48l-2.61.17Z" transform="translate(-300.33 -200.55)"/>
  <path class="cls-7" d="M379.36,264.1l0,0,2.61-.17c1.45-2.51,2.91-5,4.38-7.48.07-.11.14-.22.2-.33l2.63-4.37c8.45-13.91,16.72-26.2,21.79-31.71.84-.91,3.49-3.7,4.08-7.07a8.59,8.59,0,0,0,0-3" transform="translate(-300.33 -200.55)"/>
  <path class="cls-12" d="M339.71,259.92a27,27,0,0,1-.69-3.37c-.16-1-.34-1.84-.61-2.91a8.38,8.38,0,0,1-.12-3.22,7.13,7.13,0,0,1,.71-2.18,9.54,9.54,0,0,1,1.47-2.12c1.25-1.39,2.82-2.75,3.93-4a16.61,16.61,0,0,0,1.31-1.53c.31-.39.47-.63.47-.63a5.81,5.81,0,0,0,.44-.66,14.44,14.44,0,0,0,1-1.85,16.73,16.73,0,0,0,1.46-6.34,21.94,21.94,0,0,0-.86-6.87,33.51,33.51,0,0,0-1.49-4.23c-1.2-2.75-2.7-3.83-5.1-5.28a13.19,13.19,0,0,0,.78,7.08c.54,1.34,2.18,5.44,2,9.11a12.42,12.42,0,0,1-1,4.6,9.53,9.53,0,0,1-1,1.75A12.41,12.41,0,0,1,341,239c-.92,1-2.44,2.28-4,4.05a14.23,14.23,0,0,0-2.17,3.13,11.69,11.69,0,0,0-1.14,3.54,12.53,12.53,0,0,0,.23,5.1,6.8,6.8,0,0,0,2.27,3.65A7.41,7.41,0,0,0,339.71,259.92Z" transform="translate(-300.33 -200.55)"/>
  <path class="cls-12" d="M350.33,256a7.55,7.55,0,0,1,.41-4.32,15.75,15.75,0,0,1,1.92-3.39c1.51-2.16,3.56-4.23,5.82-7.75A22.62,22.62,0,0,0,360,237.8a19.65,19.65,0,0,0,1.6-5.65c0-.17.05-.44.08-.68s0-.42,0-.42l.05-.57,0-.23v-.31a31.18,31.18,0,0,0-.79-7.44c-.46-2-.94-3.62-1.27-4.66a76.57,76.57,0,0,0-3.72-9.11,53.88,53.88,0,0,1-3.37-8.18,25.55,25.55,0,0,0-.2,9.24,62.6,62.6,0,0,0,2.45,9.58,33.65,33.65,0,0,1,1.8,10.42l0,.42,0,.44a1.7,1.7,0,0,1,0,.33c0,.18-.05.38-.06.51a14.41,14.41,0,0,1-1.17,4.21,22,22,0,0,1-1.17,2.17c-1.9,3-3.83,5.69-4.85,8.77a12.67,12.67,0,0,0-.71,4.75A7.83,7.83,0,0,0,350.33,256Z" transform="translate(-300.33 -200.55)"/>
  <path class="cls-12" d="M365.87,259.39a27.18,27.18,0,0,1-.15-3.29,19.59,19.59,0,0,0-.3-2.88,10.74,10.74,0,0,1-.08-3.22,9.55,9.55,0,0,1,1.71-4.36c1-1.43,2.32-2.89,3.23-4.18a18.25,18.25,0,0,0,1-1.64c.23-.41.35-.65.35-.65l.32-.67a18.88,18.88,0,0,0,.7-1.82,21.06,21.06,0,0,0,.93-5.92,27,27,0,0,0-.68-6.36,36.78,36.78,0,0,0-1.13-4c-.91-2.65-2.26-3.78-4.47-5.32-.57,2.64-.75,4.33,0,6.77a29,29,0,0,1,1.55,8.87,16.44,16.44,0,0,1-.69,4.58c-.18.57-.37,1-.5,1.33l-.23.47-.25.46a10.84,10.84,0,0,1-.78,1.2c-.71,1-2,2.39-3.29,4.24a14.78,14.78,0,0,0-1.69,3.15,13.8,13.8,0,0,0-.82,3.31,14.8,14.8,0,0,0,.16,4.66,6.58,6.58,0,0,0,1.82,3.54A7.07,7.07,0,0,0,365.87,259.39Z" transform="translate(-300.33 -200.55)"/>
  <g>
    <path class="cls-13" d="M414.54,284.67a29.8,29.8,0,0,1,4.08,9l5.78,12.48c1.62,1.9,3.49,3.57,5,5.6,1.81,2.48,3,5.86,1.87,8.77a5.27,5.27,0,0,0,2.9-3c.65-2.08-.25-4.87-.72-6.32a15.8,15.8,0,0,0-1.5-3.32c-1.44-2.35-2.85-3.12-4.28-4.63-.88-.93-1.35-1.7-3.57-6.68-4.18-9.38-4.58-11.3-6.65-12A5.17,5.17,0,0,0,414.54,284.67Z" transform="translate(-300.33 -200.55)"/>
    <path class="cls-13" d="M344.48,339.87c.12.6,1.92,8.84,9.43,13.15s16,1.84,23.16-.29c5.45-1.61,9.63-4.06,18-9,8.92-5.21,16.4-10.59,18.81-12.33,8.92-6.45,8.44-7,12.25-8.74,1.61-.72,3.15-1.27,4.45-1.89a3.71,3.71,0,0,0,.49-.24l.16-.07c1.12-2.91-.06-6.29-1.87-8.77-1.48-2-3.35-3.7-5-5.6l-5.78-12.48a29.8,29.8,0,0,0-4.08-9h-.07c-.68.16-1.49.39-2.46.67-4.09,1.15-5.74,2.51-8.87,3.82-1,.41-2.29.9-9.71,2.25-5.61,1-8.75,1.6-13.54,2.21-9.05,1.16-12,.91-16.85,3.15-2.53,1.16-6,2.79-6.1,5.32-.1,2.07,2,4.23,4.21,5s2.79-.32,7.91-.22c2.81,0,4,.38,4.38,1.18.09.17.28.69-.18,1.73-1.11,2.55-4.13,3.71-5.05,4.06-8.08,3.09-12.17,4.67-14.57,6.14a19.65,19.65,0,0,0-6.5,5.67C343,331.66,344.22,338.57,344.48,339.87Z" transform="translate(-300.33 -200.55)"/>
  </g>
  <path class="cls-13" d="M424.4,306.13l6.68,14.44.07.14a.54.54,0,0,1,.05-.11l0-.1c1.12-2.91-.06-6.29-1.87-8.77C427.89,309.7,426,308,424.4,306.13Z" transform="translate(-300.33 -200.55)"/>
  <path class="cls-13" d="M424.4,306.13l-5.78-12.48c1.23,3.83,2.33,7.74,4.59,11C423.58,305.14,424,305.64,424.4,306.13Z" transform="translate(-300.33 -200.55)"/>
  <path class="cls-13" d="M416.4,288.09l.07.18,2.15,5.38a18.93,18.93,0,0,0-2.11-5.39A1,1,0,0,0,416.4,288.09Z" transform="translate(-300.33 -200.55)"/>
  <path class="cls-14" d="M432.57,332.75a.45.45,0,0,1-.1.28c-.13.15-.34.08-.5,0a3.79,3.79,0,0,1-1.25-2.37,22.21,22.21,0,0,1-.27-5.23c0-1.58,0-3.2.16-4.77,1.95-.66,1.15,3.72,1.32,5C432.24,328,432.93,330.34,432.57,332.75Z" transform="translate(-300.33 -200.55)"/>
  <path class="cls-15" d="M349.67,348.62c1.38-4.94,2.78-10,2.72-15.1a52,52,0,0,0-1.26-9.44" transform="translate(-300.33 -200.55)"/>
  <path class="cls-16" d="M360.32,355c1.33-2.11,1.75-4.84,2.14-7.43l2.49-17c.7-4.77,1.34-10.05-.64-13.87" transform="translate(-300.33 -200.55)"/>
  <path class="cls-15" d="M374.28,352.17c.28-1.1.56-2.2.82-3.3a94.59,94.59,0,0,0,.78-39.93" transform="translate(-300.33 -200.55)"/>
  <path class="cls-17" d="M387.06,348.15c.36-1.41.71-2.82,1-4.24a111.25,111.25,0,0,0-.37-51.33" transform="translate(-300.33 -200.55)"/>
  <path class="cls-18" d="M402.41,339.08c.25-1.26.49-2.51.72-3.77a114.72,114.72,0,0,0-.89-45.1" transform="translate(-300.33 -200.55)"/>
  <path class="cls-19" d="M416.6,328.75c.19-1,.37-2,.54-3a102.57,102.57,0,0,0-.38-36.21" transform="translate(-300.33 -200.55)"/>
  <path class="cls-20" d="M346.18,329.18c21.45,6.4,44.53,5.71,66.78,2.94" transform="translate(-300.33 -200.55)"/>
  <path class="cls-15" d="M345.08,340c14.59,7.42,31.21,6.94,47.48,4.11" transform="translate(-300.33 -200.55)"/>
  <path class="cls-15" d="M360.71,317.76c23.17,6.5,47.34,2,70.43-5.47" transform="translate(-300.33 -200.55)"/>
  <path class="cls-21" d="M373.21,307.8c16.05,3.23,32.33-.78,47.74-6.74" transform="translate(-300.33 -200.55)"/>
  <path class="cls-22" d="M416.61,289.79c-2,2.17-5.66,3-9.09,3.45-1.52.22-3,.41-4.58.57a122.19,122.19,0,0,1-14.84.64q-4.19-.06-8.36-.41" transform="translate(-300.33 -200.55)"/>
  <path class="cls-23" d="M375.78,308.2c.2-.13.19-.44.15-.68a39.21,39.21,0,0,0-1.52-6.89,12.78,12.78,0,0,0-3.83-5.79" transform="translate(-300.33 -200.55)"/>
  <path class="cls-23" d="M364.17,306.85a18.9,18.9,0,0,0-1.8-4.5,6.19,6.19,0,0,0-3.68-2.93" transform="translate(-300.33 -200.55)"/>
  <g class="cls-24">
    <path class="cls-25" d="M418.25,301.74a14.79,14.79,0,0,0-.39-4.58l-.86-4.52" transform="translate(-300.33 -200.55)"/>
    <path class="cls-1" d="M420.12,301.74a16.79,16.79,0,0,0-.43-5c-.3-1.54-.59-3.07-.88-4.61a1.88,1.88,0,0,0-2.31-1.31,1.92,1.92,0,0,0-1.31,2.31c.28,1.47.56,2.95.85,4.43l.21,1.14c0,.18.05.35.08.53.07.41,0-.24,0,.21a11,11,0,0,1,0,2.29,1.88,1.88,0,0,0,1.88,1.88,1.93,1.93,0,0,0,1.87-1.88Z" transform="translate(-300.33 -200.55)"/>
  </g>
  <g class="cls-24">
    <path class="cls-25" d="M417.26,322.17c-.12-3.69,2.23-7.19,1.8-10.85-.09-.69-.26-1.37-.33-2.06-.18-2.05.65-4.19-.05-6.13" transform="translate(-300.33 -200.55)"/>
    <path class="cls-1" d="M419.13,322.17c0-3.24,1.67-6.21,1.84-9.45.09-1.67-.48-3.26-.36-4.93s.43-3.44-.12-5.16c-.73-2.29-4.35-1.31-3.61,1,.48,1.51,0,3.11,0,4.65s.51,3.14.36,4.75c-.3,3.13-1.86,5.94-1.82,9.14,0,2.41,3.78,2.42,3.75,0Z" transform="translate(-300.33 -200.55)"/>
  </g>
  <g class="cls-24">
    <path class="cls-25" d="M421.77,300.76A114.49,114.49,0,0,1,378.49,309" transform="translate(-300.33 -200.55)"/>
    <path class="cls-1" d="M421.28,299a114,114,0,0,1-42.79,8.14c-2.41,0-2.42,3.74,0,3.75a116.93,116.93,0,0,0,43.78-8.27,1.93,1.93,0,0,0,1.31-2.31,1.89,1.89,0,0,0-2.3-1.31Z" transform="translate(-300.33 -200.55)"/>
  </g>
  <g class="cls-24">
    <path class="cls-25" d="M403.49,296.33a34.9,34.9,0,0,1,1.56,8.28,68.52,68.52,0,0,1-.6,11.88l-1.71,15.82" transform="translate(-300.33 -200.55)"/>
    <path class="cls-1" d="M401.68,296.83c1.79,5.75,1.74,11.51,1.13,17.44s-1.3,12-1.95,18a1.89,1.89,0,0,0,1.88,1.87,1.91,1.91,0,0,0,1.87-1.87c.67-6.18,1.39-12.35,2-18.53s.52-12.07-1.31-17.94c-.72-2.3-4.34-1.32-3.62,1Z" transform="translate(-300.33 -200.55)"/>
  </g>
  <g class="cls-24">
    <path class="cls-25" d="M430.9,312l-8.33,2.87a56.85,56.85,0,0,1-8.05,2.32,74.58,74.58,0,0,1-8.71.8c-8.3.55-16.52,2-24.81,2.7-5.16.43-10.43.54-15.44-.75" transform="translate(-300.33 -200.55)"/>
    <path class="cls-1" d="M430.4,310.23c-4,1.39-8,2.87-12.09,4.11a53.84,53.84,0,0,1-12.5,1.82c-8.62.57-17.14,2.13-25.75,2.77a44.15,44.15,0,0,1-14-.76c-2.35-.59-3.35,3-1,3.61,8.47,2.12,17.38.81,25.91-.27,4.45-.56,8.9-1.15,13.38-1.5s8.7-.38,12.94-1.48c4.78-1.23,9.44-3.07,14.11-4.68,2.27-.78,1.29-4.4-1-3.62Z" transform="translate(-300.33 -200.55)"/>
  </g>
  <g class="cls-24">
    <path class="cls-25" d="M388,298.25a45.28,45.28,0,0,1,2.7,19.73c-.19,2.19-.54,4.36-.61,6.55s.14,4.22.2,6.34a49.59,49.59,0,0,1-.78,10.46" transform="translate(-300.33 -200.55)"/>
    <path class="cls-1" d="M386.22,298.75a45,45,0,0,1,2.51,20.4c-.18,1.71-.42,3.42-.49,5.14s.07,3.74.16,5.6a50.08,50.08,0,0,1-.68,10.94c-.41,2.36,3.2,3.38,3.62,1a54.24,54.24,0,0,0,.83-11.45c-.07-1.87-.23-3.74-.19-5.61s.3-3.75.5-5.62a47.37,47.37,0,0,0-2.65-21.4c-.83-2.25-4.45-1.28-3.61,1Z" transform="translate(-300.33 -200.55)"/>
  </g>
  <g class="cls-24">
    <path class="cls-25" d="M374.36,349c1.49-5,3-10,3.42-15.16.55-6.46-.58-13-2.18-19.25" transform="translate(-300.33 -200.55)"/>
    <path class="cls-1" d="M376.17,349.48c1.71-5.73,3.38-11.53,3.6-17.55a63.85,63.85,0,0,0-2.36-17.86c-.59-2.34-4.2-1.35-3.61,1A60.41,60.41,0,0,1,376,331.93c-.2,5.67-1.85,11.15-3.47,16.55-.69,2.32,2.93,3.31,3.62,1Z" transform="translate(-300.33 -200.55)"/>
  </g>
  <g class="cls-24">
    <path class="cls-25" d="M406.31,333.33c-3.89-1.08-8,0-12,.64-14.21,2.24-28.6-1.6-43-2.32" transform="translate(-300.33 -200.55)"/>
    <path class="cls-1" d="M406.81,331.52c-4.53-1.16-9,.06-13.45.72a68.35,68.35,0,0,1-14,.37c-9.36-.59-18.62-2.35-28-2.84-2.42-.12-2.41,3.63,0,3.75,9.21.49,18.31,2.19,27.52,2.8a72.28,72.28,0,0,0,13.56-.21c4.37-.53,9-2.1,13.37-1,2.34.6,3.34-3,1-3.61Z" transform="translate(-300.33 -200.55)"/>
  </g>
  <g class="cls-24">
    <path class="cls-25" d="M362,350.15l2.12-10.21c1.3-6.28,2.61-12.72,1.67-19.07" transform="translate(-300.33 -200.55)"/>
    <path class="cls-1" d="M363.84,350.65c1.05-5.06,2.18-10.1,3.1-15.19a47.51,47.51,0,0,0,.69-15.09,1.89,1.89,0,0,0-2.31-1.31,1.93,1.93,0,0,0-1.31,2.31c.65,4.68,0,9.44-.86,14.05s-1.94,9.49-2.92,14.23c-.49,2.36,3.12,3.36,3.61,1Z" transform="translate(-300.33 -200.55)"/>
  </g>
  <g class="cls-24">
    <path class="cls-25" d="M350.68,347.68c.13-3.74,1.32-7.34,2.09-11s1.11-7.59-.39-11" transform="translate(-300.33 -200.55)"/>
    <path class="cls-1" d="M352.55,347.68c.34-7.53,4.77-15,1.64-22.51a1.94,1.94,0,0,0-2.31-1.31,1.89,1.89,0,0,0-1.31,2.31c1.38,3.29,1.08,6.81.35,10.22-.81,3.75-1.94,7.43-2.12,11.29-.1,2.41,3.65,2.4,3.75,0Z" transform="translate(-300.33 -200.55)"/>
  </g>
  <g class="cls-24">
    <path class="cls-25" d="M377.44,345.79c-8.05-1.15-16.37.15-24.29-1.66a8.75,8.75,0,0,1-4.48-2.12" transform="translate(-300.33 -200.55)"/>
    <path class="cls-1" d="M377.94,344a130.65,130.65,0,0,0-14.81-.68,54.11,54.11,0,0,1-7.19-.54c-2-.31-4.42-.62-5.95-2.08-1.74-1.66-4.4,1-2.65,2.65a11.81,11.81,0,0,0,6,2.76,50,50,0,0,0,7.92.9c5.22.22,10.49-.1,15.68.61a2,2,0,0,0,2.31-1.31,1.89,1.89,0,0,0-1.31-2.31Z" transform="translate(-300.33 -200.55)"/>
  </g>
  <g class="cls-24">
    <path class="cls-25" d="M418,292a71.84,71.84,0,0,1-34.18,2.61" transform="translate(-300.33 -200.55)"/>
    <path class="cls-1" d="M417.51,290.22a70.87,70.87,0,0,1-33.18,2.61c-2.37-.4-3.38,3.21-1,3.62a75.08,75.08,0,0,0,35.18-2.61c2.29-.73,1.31-4.35-1-3.62Z" transform="translate(-300.33 -200.55)"/>
  </g>
  <g class="cls-24">
    <path class="cls-25" d="M375.75,314a26,26,0,0,0,.45-8.31c-.56-3.39-2.52-6.51-4.84-9.46" transform="translate(-300.33 -200.55)"/>
    <path class="cls-1" d="M377.56,314.53c.58-3.56,1.13-7.2.12-10.74a26.34,26.34,0,0,0-5-8.85,1.88,1.88,0,0,0-2.65,0,1.92,1.92,0,0,0,0,2.65,21.62,21.62,0,0,1,4,7.2c.81,2.86.34,5.85-.13,8.74a1.94,1.94,0,0,0,1.31,2.31,1.9,1.9,0,0,0,2.31-1.31Z" transform="translate(-300.33 -200.55)"/>
  </g>
  <g class="cls-24">
    <path class="cls-25" d="M363.6,305.91a9.61,9.61,0,0,0-.41-3,8.17,8.17,0,0,0-2.27-3.08" transform="translate(-300.33 -200.55)"/>
    <path class="cls-1" d="M365.48,305.91a19.83,19.83,0,0,0-.2-2.3,7.07,7.07,0,0,0-.66-2.09,10.15,10.15,0,0,0-2.38-3,1.87,1.87,0,0,0-2.65,2.65,13.14,13.14,0,0,1,1.35,1.44l-.29-.38a7.31,7.31,0,0,1,.82,1.37l-.19-.45a6,6,0,0,1,.4,1.57l-.06-.5c.06.56.09,1.12.11,1.69a1.88,1.88,0,0,0,3.75,0Z" transform="translate(-300.33 -200.55)"/>
  </g>
  <g class="cls-26">
    <path class="cls-27" d="M431.47,316.59c-3.53-5.71-4.41-12.91-8.24-18.36-.72-1-1.53-2-2.23-3-2.09-3.09-3.24-7.07-5.74-9.61" transform="translate(-300.33 -200.55)"/>
    <path class="cls-28" d="M433.09,315.65C430,310.5,429,304.42,426,299.18c-1.49-2.66-3.57-4.88-5-7.61-1.31-2.55-2.47-5.17-4.46-7.28-1.67-1.76-4.31.9-2.65,2.65,1.84,1.95,2.83,4.53,4.06,6.87,1.42,2.72,3.54,4.93,5,7.62,2.77,5.16,3.81,11.07,6.86,16.11,1.25,2.06,4.5.18,3.24-1.89Z" transform="translate(-300.33 -200.55)"/>
  </g>
  <g class="cls-29">
    <path class="cls-27" d="M433.81,316c-1.45-1.84-.81-4.78-2.51-6.45-.32-.32-.71-.58-1-.9-.91-1-1-2.47-2.3-3.13" transform="translate(-300.33 -200.55)"/>
    <path class="cls-28" d="M435.43,315a3.46,3.46,0,0,1-.41-.66,1.14,1.14,0,0,1-.1-.19q.13.31.06.12c0-.11-.08-.22-.11-.34a15.9,15.9,0,0,1-.37-1.55,8.83,8.83,0,0,0-1.13-3.28,7,7,0,0,0-1.39-1.48l-.31-.29c-.16-.16-.17-.2,0,0a7.1,7.1,0,0,1-.41-.7,6,6,0,0,0-2.3-2.79A1.88,1.88,0,0,0,427,307.1c.14.08.35.3.09,0a1.81,1.81,0,0,0,.24.24c.16.12-.21-.34,0,0,.05.1.11.19.17.29.23.41.41.85.65,1.26a5.54,5.54,0,0,0,1.21,1.43,8.42,8.42,0,0,1,.64.55c.15.16.16.21,0,0l.22.35c.06.1.11.21.16.31s-.11-.33,0,0,.14.45.2.69c.13.49.22,1,.32,1.49a7.6,7.6,0,0,0,1.23,3.16,1.94,1.94,0,0,0,2.57.68,1.89,1.89,0,0,0,.67-2.57Z" transform="translate(-300.33 -200.55)"/>
  </g>
</svg>
